<?xml version="1.0" encoding="UTF-8"?>
<svg version="1.1" xmlns="http://www.w3.org/2000/svg" width="1000" height="1000">
<path d="M0 0 C6.6 0 13.2 0 20 0 C20 0.99 20 1.98 20 3 C20.57363281 3.08636719 21.14726562 3.17273437 21.73828125 3.26171875 C24.63626802 4.20769371 26.05174461 5.65270234 28.1875 7.8125 C28.88230469 8.49957031 29.57710937 9.18664062 30.29296875 9.89453125 C32.01051613 12.01297069 32.59910773 13.33735732 33 16 C33.66 16 34.32 16 35 16 C35.12375 16.804375 35.2475 17.60875 35.375 18.4375 C35.58125 19.283125 35.7875 20.12875 36 21 C36.66 21.33 37.32 21.66 38 22 C38.8515625 24.06640625 38.8515625 24.06640625 39.625 26.5625 C39.88539063 27.38878906 40.14578125 28.21507813 40.4140625 29.06640625 C40.60742188 29.70449219 40.80078125 30.34257813 41 31 C41.66 31 42.32 31 43 31 C43.66 33.64 44.32 36.28 45 39 C45.66 39 46.32 39 47 39 C48.25664978 41.90600261 49 43.79604584 49 47 C49.66 47.33 50.32 47.66 51 48 C51.8515625 50.06640625 51.8515625 50.06640625 52.625 52.5625 C53.01558594 53.80193359 53.01558594 53.80193359 53.4140625 55.06640625 C53.70410156 56.02353516 53.70410156 56.02353516 54 57 C54.66 57 55.32 57 56 57 C56.66 59.64 57.32 62.28 58 65 C58.66 65 59.32 65 60 65 C61.25664978 67.90600261 62 69.79604584 62 73 C62.66 73 63.32 73 64 73 C64.99 76.3 65.98 79.6 67 83 C67.66 83 68.32 83 69 83 C69.66 85.64 70.32 88.28 71 91 C71.66 91 72.32 91 73 91 C73.28875 92.134375 73.5775 93.26875 73.875 94.4375 C74.24625 95.613125 74.6175 96.78875 75 98 C75.66 98.33 76.32 98.66 77 99 C77.37756808 100.32148827 77.7018576 101.65835921 78 103 C78.350625 103.845625 78.70125 104.69125 79.0625 105.5625 C80 108 80 108 80 111 C80.66 111 81.32 111 82 111 C83.25664978 113.90600261 84 115.79604584 84 119 C84.66 119 85.32 119 86 119 C86.66 121.31 87.32 123.62 88 126 C88.66 126 89.32 126 90 126 C90.66 128.64 91.32 131.28 92 134 C92.66 134 93.32 134 94 134 C95.61064629 137.65079826 96.44894091 141.0507432 97 145 C97.66 145 98.32 145 99 145 C100.00460531 147.12282669 101.00355602 149.24833021 102 151.375 C102.556875 152.55835938 103.11375 153.74171875 103.6875 154.9609375 C105 158 105 158 105 160 C105.66 160 106.32 160 107 160 C108.61064629 163.65079826 109.44894091 167.0507432 110 171 C110.66 171 111.32 171 112 171 C113.00460531 173.12282669 114.00355602 175.24833021 115 177.375 C115.556875 178.55835938 116.11375 179.74171875 116.6875 180.9609375 C118 184 118 184 118 186 C118.66 186 119.32 186 120 186 C121.61064629 189.65079826 122.44894091 193.0507432 123 197 C123.66 197 124.32 197 125 197 C126.25664978 199.90600261 127 201.79604584 127 205 C127.66 205 128.32 205 129 205 C130.49821059 208.37097383 131 210.20442119 131 214 C131.66 214.33 132.32 214.66 133 215 C134.28592275 217.27509409 135.47504283 219.53301405 136.625 221.875 C136.94984375 222.51308594 137.2746875 223.15117187 137.609375 223.80859375 C139.05782082 226.7237431 140 228.70246267 140 232 C140.66 232 141.32 232 142 232 C143.25664978 234.90600261 144 236.79604584 144 240 C144.66 240.33 145.32 240.66 146 241 C147.28592275 243.27509409 148.47504283 245.53301405 149.625 247.875 C149.94984375 248.51308594 150.2746875 249.15117187 150.609375 249.80859375 C152.05782082 252.7237431 153 254.70246267 153 258 C153.66 258 154.32 258 155 258 C156.25664978 260.90600261 157 262.79604584 157 266 C157.66 266 158.32 266 159 266 C160.25664978 268.90600261 161 270.79604584 161 274 C163.96178773 275.67110042 166.37071192 276.32682752 169.75 276.625 C170.54921875 276.69976562 171.3484375 276.77453125 172.171875 276.8515625 C172.77515625 276.90054687 173.3784375 276.94953125 174 277 C174 277.66 174 278.32 174 279 C175.93166016 278.9690625 175.93166016 278.9690625 177.90234375 278.9375 C182.84496913 278.9375 187.66091646 279.40293468 192.5625 280 C193.38041016 280.09539062 194.19832031 280.19078125 195.04101562 280.2890625 C197.02788675 280.52144509 199.01402794 280.76005516 201 281 C201 281.66 201 282.32 201 283 C202.7015625 282.938125 202.7015625 282.938125 204.4375 282.875 C209.33703986 282.86713557 214.13994427 283.37361771 219 283.9375 C220.14940063 284.06777588 220.14940063 284.06777588 221.32202148 284.20068359 C226.87407464 284.87407464 226.87407464 284.87407464 228 286 C230.57433102 286.36146949 233.13443419 286.66723217 235.71875 286.9375 C236.49182495 287.02249756 237.2648999 287.10749512 238.06140137 287.19506836 C240.54050206 287.4675355 243.0201524 287.73442189 245.5 288 C248.76097803 288.34923291 252.02127111 288.70407389 255.28125 289.0625 C256.03853394 289.14169678 256.79581787 289.22089355 257.5760498 289.30249023 C262.88719819 289.88719819 262.88719819 289.88719819 264 291 C265.92158246 291.29890449 267.8523595 291.53915106 269.78515625 291.75390625 C270.95498047 291.88603516 272.12480469 292.01816406 273.33007812 292.15429688 C274.56177734 292.28900391 275.79347656 292.42371094 277.0625 292.5625 C278.29806641 292.70107422 279.53363281 292.83964844 280.80664062 292.98242188 C283.87068212 293.32549988 286.93512018 293.66450754 290 294 C290 294.66 290 295.32 290 296 C291.93166016 295.9690625 291.93166016 295.9690625 293.90234375 295.9375 C298.84496913 295.9375 303.66091646 296.40293468 308.5625 297 C309.38041016 297.09539062 310.19832031 297.19078125 311.04101562 297.2890625 C313.02788675 297.52144509 315.01402794 297.76005516 317 298 C317 298.66 317 299.32 317 300 C318.794375 299.95552734 318.794375 299.95552734 320.625 299.91015625 C327.13137661 299.91143101 333.54350854 300.69676059 340 301.4375 C341.85818359 301.63956055 341.85818359 301.63956055 343.75390625 301.84570312 C352.87156482 302.87156482 352.87156482 302.87156482 354 304 C355.83705518 304.28643064 357.68317519 304.51519727 359.53125 304.71875 C361.21154297 304.91017578 361.21154297 304.91017578 362.92578125 305.10546875 C364.69501953 305.30076172 364.69501953 305.30076172 366.5 305.5 C368.82335705 305.75645799 371.14630413 306.01666756 373.46875 306.28125 C375.02239258 306.45237305 375.02239258 306.45237305 376.60742188 306.62695312 C379 307 379 307 380 308 C381.9946903 308.29928809 383.99833124 308.53935637 386.00390625 308.75390625 C387.21884766 308.88603516 388.43378906 309.01816406 389.68554688 309.15429688 C391.60463867 309.35635742 391.60463867 309.35635742 393.5625 309.5625 C394.84576172 309.70107422 396.12902344 309.83964844 397.45117188 309.98242188 C400.63371616 310.32552144 403.81664414 310.66452788 407 311 C407 311.66 407 312.32 407 313 C408.8253125 312.95552734 408.8253125 312.95552734 410.6875 312.91015625 C416.84933398 312.91136351 422.89314122 313.67679627 429 314.4375 C430.14339844 314.57220703 431.28679688 314.70691406 432.46484375 314.84570312 C440.87012843 315.87012843 440.87012843 315.87012843 442 317 C444.32910681 317.43967833 446.66352687 317.85131609 449 318.25 C458.37940605 320.02049462 464.8489694 322.97898232 471.00390625 330.3515625 C472 332 472 332 472 335 C472.99 335 473.98 335 475 335 C475 340.61 475 346.22 475 352 C474.01 352 473.02 352 472 352 C471.855625 352.763125 471.71125 353.52625 471.5625 354.3125 C471 357 471 357 470 360 C469.01 360.495 469.01 360.495 468 361 C467.54367187 361.93392578 467.54367187 361.93392578 467.078125 362.88671875 C465.89641592 365.20303982 464.78261517 366.22394715 462.75 367.8125 C460.22243982 369.88572601 458.07448486 371.97381279 456 374.5 C453.4730072 377.5660846 450.71028501 380.01252199 447.65234375 382.53515625 C445.74858008 384.14903343 445.74858008 384.14903343 443.5 387 C441.55318179 389.33618185 439.86955291 391.03430755 437.5625 392.9375 C435.10571634 394.96540548 433.06516417 397.02387989 431.0625 399.5 C429.04986686 401.943752 427.08418799 403.76079172 424.48242188 405.55493164 C418.86503764 409.68931939 414.10396489 414.66722606 409.21875 419.62109375 C408.19611619 420.65001648 407.17295313 421.67841343 406.14929199 422.70631409 C403.4717365 425.39707755 400.79982423 428.09336716 398.12957764 430.79138184 C393.8587587 435.10555041 389.58111383 439.412922 385.30006409 443.71693611 C383.8199153 445.20716512 382.3433084 446.70083419 380.86706543 448.19493103 C376.38763809 452.70634653 371.86335104 457.05079657 367.03710938 461.18675232 C362.74699721 465.00541617 358.76852846 469.15335546 354.734375 473.23828125 C353.7692731 474.21034622 352.80379138 475.18203421 351.83795166 476.15336609 C347.77365924 480.24188448 343.71529811 484.33625463 339.66113281 488.43481445 C337.16634791 490.95639651 334.66669924 493.47307187 332.16400909 495.98680687 C330.75772215 497.40228156 329.35705075 498.82332822 327.95648193 500.24446106 C327.1016925 501.10262924 326.24690308 501.96079742 325.36621094 502.8449707 C324.24324615 503.97912163 324.24324615 503.97912163 323.09759521 505.13618469 C321.11720179 506.89586051 319.38627869 507.90249183 317 509 C315.47046736 510.53760532 315.47046736 510.53760532 314.125 512.3125 C312.18089801 514.68050393 310.45070866 516.45579494 308.0625 518.4375 C305.5437503 520.54502526 303.60924615 522.51989739 301.5 525 C298.59598682 528.41348918 295.44628398 531.12809668 292 534 C290.81360996 535.31581441 289.64801738 536.65057606 288.5 538 C285.59598682 541.41348918 282.44628398 544.12809668 279 547 C277.15127277 549.00311773 275.37409865 551.05221447 273.61328125 553.1328125 C271.43774422 555.6507464 269.62962678 557.6596612 266.6875 559.25 C263.00894858 561.64533581 259.97609157 564.00290568 258 568 C258.04587002 571.52052408 259.03546292 574.63460431 260 578 C260.21879502 579.51664729 260.40948462 581.03781099 260.5625 582.5625 C260.62137726 585.82543499 260.62137726 585.82543499 262 587 C261.71269945 589.33944736 261.38063221 591.6739143 261 594 C261.66 594 262.32 594 263 594 C265.29612756 608.59681093 265.29612756 608.59681093 265 616 C265.66 616 266.32 616 267 616 C267.12846313 617.0372522 267.12846313 617.0372522 267.25952148 618.09545898 C267.64776301 621.21004211 268.04254205 624.32376177 268.4375 627.4375 C268.57220703 628.52611328 268.70691406 629.61472656 268.84570312 630.73632812 C268.97783203 631.77080078 269.10996094 632.80527344 269.24609375 633.87109375 C269.36654053 634.82943115 269.4869873 635.78776855 269.61108398 636.77514648 C269.77440917 638.9660042 269.77440917 638.9660042 271 640 C271 642 271 644 271 646 C271.33 646.33 271.66 646.66 272 647 C272.93119789 652.0698552 273.08997924 656.87118304 273 662 C273.66 662 274.32 662 275 662 C274.979375 662.969375 274.95875 663.93875 274.9375 664.9375 C274.64381501 667.87465895 274.64381501 667.87465895 276 669 C276.28502833 670.61764768 276.51444645 672.24518859 276.71875 673.875 C276.84636719 674.85984375 276.97398437 675.8446875 277.10546875 676.859375 C277.36848958 678.953125 277.63151042 681.046875 277.89453125 683.140625 C278.02214844 684.12546875 278.14976562 685.1103125 278.28125 686.125 C278.39533203 687.03507813 278.50941406 687.94515625 278.62695312 688.8828125 C278.78754397 690.97876993 278.78754397 690.97876993 280 692 C281.31690624 699.62267625 282.31603123 707.25723488 282 715 C282.66 715 283.32 715 284 715 C286.29612756 729.59681093 286.29612756 729.59681093 286 737 C286.66 737 287.32 737 288 737 C287.979375 738.134375 287.95875 739.26875 287.9375 740.4375 C287.58422523 743.81575674 287.58422523 743.81575674 289 745 C289.4051844 747.56419619 289.75446546 750.11141859 290.0625 752.6875 C290.15337891 753.39583984 290.24425781 754.10417969 290.33789062 754.83398438 C290.83918087 758.91591925 291.0973592 762.87846056 291 767 C291.66 767 292.32 767 293 767 C293.12846313 768.0372522 293.12846313 768.0372522 293.25952148 769.09545898 C293.64776301 772.21004211 294.04254205 775.32376177 294.4375 778.4375 C294.57220703 779.52611328 294.70691406 780.61472656 294.84570312 781.73632812 C294.97783203 782.77080078 295.10996094 783.80527344 295.24609375 784.87109375 C295.36654053 785.82943115 295.4869873 786.78776855 295.61108398 787.77514648 C295.77440917 789.9660042 295.77440917 789.9660042 297 791 C297.40602589 793.37688151 297.7546484 795.73515942 298.0625 798.125 C298.23910156 799.42695312 298.41570313 800.72890625 298.59765625 802.0703125 C298.97427127 805.74870773 299.07196124 809.30598965 299 813 C299.66 813 300.32 813 301 813 C300.979375 813.969375 300.95875 814.93875 300.9375 815.9375 C300.64381501 818.87465895 300.64381501 818.87465895 302 820 C302.4070867 822.52274896 302.75554641 825.02729073 303.0625 827.5625 C303.15337891 828.25408203 303.24425781 828.94566406 303.33789062 829.65820312 C303.93466009 834.47274172 304.08184686 839.14920915 304 844 C304.66 844 305.32 844 306 844 C306 851.92 306 859.84 306 868 C305.34 868 304.68 868 304 868 C303.96003906 868.56847656 303.92007813 869.13695312 303.87890625 869.72265625 C303.34271106 873.68785279 302.80110209 876.20485406 299.8984375 879.0859375 C298.2933922 880.29354301 296.65953102 881.46402941 294.99609375 882.58984375 C292.87777849 883.8507103 292.87777849 883.8507103 292 886 C285.4 886 278.8 886 272 886 C272 885.01 272 884.02 272 883 C271.071875 882.855625 270.14375 882.71125 269.1875 882.5625 C266 882 266 882 263 881 C263 880.34 263 879.68 263 879 C262.236875 878.855625 261.47375 878.71125 260.6875 878.5625 C258 878 258 878 255 877 C255 876.34 255 875.68 255 875 C254.236875 874.855625 253.47375 874.71125 252.6875 874.5625 C250 874 250 874 247 873 C247 872.34 247 871.68 247 871 C245.88625 870.814375 245.88625 870.814375 244.75 870.625 C242.19858515 870.04513299 240.2732427 869.26291261 238 868 C238 867.34 238 866.68 238 866 C237.236875 865.855625 236.47375 865.71125 235.6875 865.5625 C233 865 233 865 230 864 C230 863.34 230 862.68 230 862 C229.0925 861.814375 228.185 861.62875 227.25 861.4375 C222.53618615 860.09204016 218.63723562 857.52282298 214.46484375 855.0078125 C208.75278871 851.62772023 202.74133947 848.79420047 196.78466797 845.8762207 C194.18251062 844.5986362 191.5913662 843.29930233 189 842 C188.22914063 841.61457031 187.45828125 841.22914063 186.6640625 840.83203125 C184.77604167 839.88802083 182.88802083 838.94401042 181 838 C181 837.34 181 836.68 181 836 C180.236875 835.855625 179.47375 835.71125 178.6875 835.5625 C176 835 176 835 173 834 C173 833.34 173 832.68 173 832 C171.88625 831.814375 171.88625 831.814375 170.75 831.625 C168.19858515 831.04513299 166.2732427 830.26291261 164 829 C164 828.34 164 827.68 164 827 C163.236875 826.855625 162.47375 826.71125 161.6875 826.5625 C159 826 159 826 156 825 C156 824.34 156 823.68 156 823 C155.236875 822.855625 154.47375 822.71125 153.6875 822.5625 C151 822 151 822 148 821 C148 820.34 148 819.68 148 819 C146.9275 818.731875 145.855 818.46375 144.75 818.1875 C141.26428864 817.0836914 139.80698762 816.13638529 137 814 C135.40610365 813.16746779 133.78933531 812.37776013 132.15625 811.625 C131.23972656 811.19703125 130.32320312 810.7690625 129.37890625 810.328125 C128.42886719 809.88984375 127.47882812 809.4515625 126.5 809 C124.61260002 808.12928631 122.727105 807.25442877 120.84375 806.375 C120.01037109 805.99085938 119.17699219 805.60671875 118.31835938 805.2109375 C115.99964065 803.9998123 114.07393731 802.58530915 112 801 C109.77121753 799.89368406 107.51909202 798.83359141 105.25 797.8125 C104.07953125 797.28269531 102.9090625 796.75289062 101.703125 796.20703125 C100.81109375 795.80871094 99.9190625 795.41039062 99 795 C99 794.34 99 793.68 99 793 C98.236875 792.855625 97.47375 792.71125 96.6875 792.5625 C94 792 94 792 91 791 C91 790.34 91 789.68 91 789 C90.443125 788.87625 89.88625 788.7525 89.3125 788.625 C86.77885636 787.94023145 84.42078968 787.00866237 82 786 C82 785.34 82 784.68 82 784 C81.236875 783.855625 80.47375 783.71125 79.6875 783.5625 C77 783 77 783 74 782 C74 781.34 74 780.68 74 780 C73.236875 779.855625 72.47375 779.71125 71.6875 779.5625 C69 779 69 779 66 778 C66 777.34 66 776.68 66 776 C64.75669922 775.62294922 64.75669922 775.62294922 63.48828125 775.23828125 C59.5413576 773.83718965 55.91345829 772.085897 52.1875 770.1875 C51.11822266 769.64802734 51.11822266 769.64802734 50.02734375 769.09765625 C45.78453009 766.94527998 41.61082768 764.70211229 37.4765625 762.34765625 C33.32857796 760.09047223 29.08448332 758.02203945 24.84570312 755.94140625 C24.19279297 755.61914062 23.53988281 755.296875 22.8671875 754.96484375 C22.22104492 754.64757324 21.57490234 754.33030273 20.90917969 754.00341797 C18.99136915 752.99546384 17.20715536 751.85804396 15.3828125 750.69140625 C11.41231756 748.70615878 10.16850829 748.65480536 6 750 C3.26345271 751.14617912 0.63382682 752.44855397 -2 753.8125 C-2.68578125 754.15603516 -3.3715625 754.49957031 -4.078125 754.85351562 C-8.25979134 756.98026005 -12.09553318 759.39168815 -16 762 C-17.89417593 762.96228189 -19.81073925 763.88215403 -21.75 764.75 C-23.16539062 765.39195312 -23.16539062 765.39195312 -24.609375 766.046875 C-27 767 -27 767 -29 767 C-29 767.66 -29 768.32 -29 769 C-29.56589844 769.19335938 -30.13179688 769.38671875 -30.71484375 769.5859375 C-31.81505859 769.97652344 -31.81505859 769.97652344 -32.9375 770.375 C-34.03384766 770.75785156 -34.03384766 770.75785156 -35.15234375 771.1484375 C-37.18682116 771.85271413 -37.18682116 771.85271413 -38 774 C-40.90259811 775.3749149 -42.76138705 776 -46 776 C-46 776.66 -46 777.32 -46 778 C-48.90600261 779.25664978 -50.79604584 780 -54 780 C-54 780.66 -54 781.32 -54 782 C-56.90600261 783.25664978 -58.79604584 784 -62 784 C-62.33 784.99 -62.66 785.98 -63 787 C-65.89558441 788.4477922 -67.74188938 789 -71 789 C-71 789.66 -71 790.32 -71 791 C-71.93457031 791.46148438 -72.86914062 791.92296875 -73.83203125 792.3984375 C-82.40170454 796.64789882 -90.90139296 801.0135391 -99.35083008 805.49755859 C-102.97101821 807.41666638 -106.59800201 809.30961836 -110.26953125 811.12890625 C-113.88075472 812.92065275 -117.35347704 814.89976798 -120.82421875 816.94921875 C-123.20691728 818.09992953 -125.39573684 818.58495981 -128 819 C-128 819.66 -128 820.32 -128 821 C-130.90600261 822.25664978 -132.79604584 823 -136 823 C-136 823.66 -136 824.32 -136 825 C-138.26727333 826.17407021 -140.53834624 827.33939739 -142.8125 828.5 C-143.45509766 828.83386719 -144.09769531 829.16773438 -144.75976562 829.51171875 C-147.69547699 831.00239084 -149.66126517 832 -153 832 C-153 832.66 -153 833.32 -153 834 C-155 835 -157 836 -159 837 C-159.62068359 837.31106689 -160.24136719 837.62213379 -160.88085938 837.94262695 C-164.34164805 839.67603441 -167.80699599 841.39919236 -171.28125 843.10546875 C-171.98507812 843.45287109 -172.68890625 843.80027344 -173.4140625 844.15820312 C-174.77181015 844.82817786 -176.13111307 845.49501294 -177.4921875 846.15820312 C-180.60501432 847.69873476 -183.39762231 849.27123522 -186.28125 851.23828125 C-189 853 -189 853 -192 853 C-192 853.66 -192 854.32 -192 855 C-192.65226562 855.25394531 -193.30453125 855.50789062 -193.9765625 855.76953125 C-197.89665407 857.31328413 -201.72889336 858.86444668 -205.5 860.75 C-208 862 -208 862 -210 862 C-210 862.66 -210 863.32 -210 864 C-212.31 864.66 -214.62 865.32 -217 866 C-217 866.66 -217 867.32 -217 868 C-223.625 871 -223.625 871 -227 871 C-227 871.66 -227 872.32 -227 873 C-229.90600261 874.25664978 -231.79604584 875 -235 875 C-235 875.66 -235 876.32 -235 877 C-240.73115109 880.59523599 -245.21017493 882.62964591 -252 883 C-252 883.99 -252 884.98 -252 886 C-258.6 886 -265.2 886 -272 886 C-272 885.01 -272 884.02 -272 883 C-272.763125 882.896875 -273.52625 882.79375 -274.3125 882.6875 C-277.18416484 881.95288806 -278.23042094 881.3283935 -280 879 C-280 878.34 -280 877.68 -280 877 C-280.66 877 -281.32 877 -282 877 C-282.66 874.36 -283.32 871.72 -284 869 C-284.66 869 -285.32 869 -286 869 C-286 861.08 -286 853.16 -286 845 C-285.34 845 -284.68 845 -284 845 C-284.04125 843.989375 -284.0825 842.97875 -284.125 841.9375 C-284.14919665 835.24712666 -282.96344101 828.60645261 -282 822 C-281.34 822 -280.68 822 -280 822 C-279.93941406 820.99839844 -279.87882813 819.99679687 -279.81640625 818.96484375 C-279.73191595 817.62238669 -279.64727232 816.27993928 -279.5625 814.9375 C-279.48128906 813.62652344 -279.40007812 812.31554687 -279.31640625 810.96484375 C-278.52520516 801.05041032 -278.52520516 801.05041032 -277 798 C-276.960008 796.00039988 -276.95653201 793.99952758 -277 792 C-276.34 792 -275.68 792 -275 792 C-274.93941406 790.91460938 -274.87882813 789.82921875 -274.81640625 788.7109375 C-274.73193936 787.26561514 -274.64729449 785.82030318 -274.5625 784.375 C-274.52318359 783.66214844 -274.48386719 782.94929687 -274.44335938 782.21484375 C-274.19690319 778.08196318 -273.76529947 774.07730976 -273 770 C-272.34 770 -271.68 770 -271 770 C-270.93941406 768.9378125 -270.87882813 767.875625 -270.81640625 766.78125 C-269.99797889 752.84328379 -269.99797889 752.84328379 -269 746 C-268.34 746 -267.68 746 -267 746 C-267.04125 744.96875 -267.0825 743.9375 -267.125 742.875 C-267.13642031 736.53672665 -266.15638831 730.22086265 -265 724 C-264.67 723.67 -264.34 723.34 -264 723 C-263.95907063 720.66702567 -263.95758277 718.33294775 -264 716 C-263.34 716 -262.68 716 -262 716 C-262.04125 714.989375 -262.0825 713.97875 -262.125 712.9375 C-262.14919665 706.24712666 -260.96344101 699.60645261 -260 693 C-259.34 693 -258.68 693 -258 693 C-257.93941406 691.99839844 -257.87882813 690.99679687 -257.81640625 689.96484375 C-257.73191595 688.62238669 -257.64727232 687.27993928 -257.5625 685.9375 C-257.48128906 684.62652344 -257.40007812 683.31554687 -257.31640625 681.96484375 C-257.02101751 678.26336762 -256.56734612 674.66629552 -256 671 C-255.34 671 -254.68 671 -254 671 C-253.92652344 669.40671875 -253.92652344 669.40671875 -253.8515625 667.78125 C-253.48308721 660.58364251 -252.93523213 653.96683566 -251 647 C-250.8309611 643.66605561 -250.8309611 643.66605561 -251 641 C-250.34 641 -249.68 641 -249 641 C-248.93941406 639.85660156 -248.87882813 638.71320312 -248.81640625 637.53515625 C-248.73201572 636.04425695 -248.64736698 634.55337225 -248.5625 633.0625 C-248.52318359 632.30775391 -248.48386719 631.55300781 -248.44335938 630.77539062 C-248.11328125 625.11328125 -248.11328125 625.11328125 -247 624 C-246.95907063 621.66702567 -246.95758277 619.33294775 -247 617 C-246.34 617 -245.68 617 -245 617 C-244.93941406 616.0821875 -244.87882813 615.164375 -244.81640625 614.21875 C-244.37688758 607.781492 -243.89469001 601.39064295 -243 595 C-242.34 595 -241.68 595 -241 595 C-241.04125 593.989375 -241.0825 592.97875 -241.125 591.9375 C-241.14919665 585.24712666 -239.96344101 578.60645261 -239 572 C-238.34 572 -237.68 572 -237 572 C-238.30909505 565.55600501 -242.38927445 562.08371801 -246.9375 557.6875 C-247.66646484 556.95982422 -248.39542969 556.23214844 -249.14648438 555.48242188 C-253.06642846 551.4578161 -253.06642846 551.4578161 -258 549 C-259.359375 547.58203125 -259.359375 547.58203125 -260.75 545.8125 C-262.84494631 543.26641427 -264.95174117 541.09160183 -267.5 539 C-270.54344052 536.49049642 -272.96523901 533.7549229 -275.46875 530.71875 C-277.53809292 528.39601815 -279.88152318 526.50973364 -282.27734375 524.53515625 C-284.62491853 522.44309981 -286.53804548 520.07324461 -288.53515625 517.65234375 C-290.14903343 515.74858008 -290.14903343 515.74858008 -293 513.5 C-295.93688233 511.05259806 -298.16032157 508.54151122 -300.5078125 505.55078125 C-302.18587317 503.80682815 -303.79436388 502.96082432 -306 502 C-306 501.34 -306 500.68 -306 500 C-307.32 499.34 -308.64 498.68 -310 498 C-310 497.34 -310 496.68 -310 496 C-310.639375 495.731875 -311.27875 495.46375 -311.9375 495.1875 C-314 494 -314 494 -315 491 C-317.00016466 489.79117904 -317.00016466 489.79117904 -319 489 C-319 488.34 -319 487.68 -319 487 C-320.32 486.34 -321.64 485.68 -323 485 C-323 484.34 -323 483.68 -323 483 C-323.639375 482.731875 -324.27875 482.46375 -324.9375 482.1875 C-327 481 -327 481 -328 478 C-330.00016466 476.79117904 -330.00016466 476.79117904 -332 476 C-332 475.34 -332 474.68 -332 474 C-333.32 473.34 -334.64 472.68 -336 472 C-336 471.34 -336 470.68 -336 470 C-336.639375 469.731875 -337.27875 469.46375 -337.9375 469.1875 C-340 468 -340 468 -341 465 C-343.00016466 463.79117904 -343.00016466 463.79117904 -345 463 C-345 462.34 -345 461.68 -345 461 C-346.32 460.34 -347.64 459.68 -349 459 C-349 458.34 -349 457.68 -349 457 C-349.57053101 456.91809921 -350.14106201 456.83619843 -350.72888184 456.7518158 C-353.7189197 455.76201362 -355.13224604 454.21427843 -357.33789062 451.97094727 C-358.18557007 451.11658585 -359.03324951 450.26222443 -359.90661621 449.38197327 C-360.81399536 448.45283615 -361.72137451 447.52369904 -362.65625 446.56640625 C-363.6042161 445.60775935 -364.55299985 444.64992036 -365.50256348 443.69285583 C-367.99961727 441.17302882 -370.48840194 438.6452109 -372.97467041 436.11474609 C-376.95251391 432.06670817 -380.93778366 428.02611002 -384.93241882 423.99464226 C-386.32389124 422.58650288 -387.70869126 421.17178017 -389.09338379 419.75697327 C-389.94106323 418.89945969 -390.78874268 418.04194611 -391.66210938 417.15844727 C-392.40505249 416.40201431 -393.14799561 415.64558136 -393.91345215 414.8662262 C-395.88936903 413.09894928 -397.61188775 412.09700457 -400 411 C-401.4921875 409.44921875 -401.4921875 409.44921875 -402.875 407.6875 C-404.81910199 405.31949607 -406.54929134 403.54420506 -408.9375 401.5625 C-411.4562497 399.45497474 -413.39075385 397.48010261 -415.5 395 C-417.59003932 392.54328712 -419.50190289 390.58174759 -422 388.5 C-425.15503916 385.8708007 -427.62591549 383.0277697 -430.27734375 379.91015625 C-432.61608041 377.31686322 -435.31547368 375.22758567 -438 373 C-439.62315348 371.19090053 -441.17490664 369.34285738 -442.703125 367.453125 C-443.95780703 365.86712389 -443.95780703 365.86712389 -446 365 C-446.66666667 363.66666667 -447.33333333 362.33333333 -448 361 C-448.66 360.67 -449.32 360.34 -450 360 C-453.79666871 354.46587273 -453.34941622 349.06013164 -453.1875 342.625 C-453.17396484 341.60277344 -453.16042969 340.58054687 -453.14648438 339.52734375 C-453.11130217 337.01767951 -453.06207539 334.5091191 -453 332 C-452.34 332 -451.68 332 -451 332 C-450.71125 331.38125 -450.4225 330.7625 -450.125 330.125 C-449 328 -449 328 -447 326 C-446.01 326 -445.02 326 -444 326 C-443.67 325.01 -443.34 324.02 -443 323 C-437.42180897 319.27678936 -430.9252999 318.27526148 -424.40625 317.39453125 C-422.05476924 317.249229 -422.05476924 317.249229 -421 316 C-417.02407134 315.31749414 -413.00575351 314.90942925 -409 314.4375 C-407.88753906 314.29892578 -406.77507812 314.16035156 -405.62890625 314.01757812 C-399.368284 313.26910562 -393.30424303 312.84640086 -387 313 C-387 312.34 -387 311.68 -387 311 C-385.78098999 310.87153687 -385.78098999 310.87153687 -384.53735352 310.74047852 C-380.87857159 310.35235044 -377.22054426 309.95751734 -373.5625 309.5625 C-371.6434082 309.36043945 -371.6434082 309.36043945 -369.68554688 309.15429688 C-368.47060547 309.02216797 -367.25566406 308.89003906 -366.00390625 308.75390625 C-364.87799072 308.63345947 -363.7520752 308.5130127 -362.59204102 308.38891602 C-360.07580128 308.27392052 -360.07580128 308.27392052 -359 307 C-356.16482521 306.59199691 -353.34648157 306.24345144 -350.5 305.9375 C-349.33210938 305.80118164 -349.33210938 305.80118164 -348.140625 305.66210938 C-342.72989529 305.06639162 -337.44290271 304.91835646 -332 305 C-332 304.34 -332 303.68 -332 303 C-327.85518522 302.49131204 -323.70901276 301.99464043 -319.5625 301.5 C-318.39783203 301.35691406 -317.23316406 301.21382813 -316.03320312 301.06640625 C-309.63599688 300.30955368 -303.44133215 299.83466099 -297 300 C-297 299.34 -297 298.68 -297 298 C-296.18732666 297.91435791 -295.37465332 297.82871582 -294.53735352 297.74047852 C-290.87857159 297.35235044 -287.22054426 296.95751734 -283.5625 296.5625 C-282.28310547 296.42779297 -281.00371094 296.29308594 -279.68554688 296.15429688 C-277.86313477 295.95610352 -277.86313477 295.95610352 -276.00390625 295.75390625 C-274.87799072 295.63345947 -273.7520752 295.5130127 -272.59204102 295.38891602 C-270.07580128 295.27392052 -270.07580128 295.27392052 -269 294 C-267.08983184 293.71317444 -265.17084947 293.48459351 -263.25 293.28125 C-261.50203125 293.08982422 -261.50203125 293.08982422 -259.71875 292.89453125 C-257.23958333 292.63151042 -254.76041667 292.36848958 -252.28125 292.10546875 C-250.53328125 291.91404297 -250.53328125 291.91404297 -248.75 291.71875 C-247.67234375 291.60466797 -246.5946875 291.49058594 -245.484375 291.37304688 C-243.0629796 291.26106874 -243.0629796 291.26106874 -242 290 C-239.49857321 289.63875026 -237.0116515 289.33298131 -234.5 289.0625 C-233.74912109 288.97750244 -232.99824219 288.89250488 -232.22460938 288.80493164 C-228.99940793 288.43998522 -225.77310073 288.08525036 -222.546875 287.72949219 C-220.19751138 287.46897808 -217.84876208 287.20337382 -215.5 286.9375 C-214.76458984 286.85830322 -214.02917969 286.77910645 -213.27148438 286.69750977 C-209.84136046 286.57303373 -209.84136046 286.57303373 -207 285 C-204.16482521 284.59199691 -201.34648157 284.24345144 -198.5 283.9375 C-197.33210938 283.80118164 -197.33210938 283.80118164 -196.140625 283.66210938 C-190.72989529 283.06639162 -185.44290271 282.91835646 -180 283 C-180 282.34 -180 281.68 -180 281 C-179.21761963 280.91435791 -178.43523926 280.82871582 -177.62915039 280.74047852 C-174.10641985 280.35232556 -170.58446859 279.9575043 -167.0625 279.5625 C-165.83080078 279.42779297 -164.59910156 279.29308594 -163.33007812 279.15429688 C-162.16025391 279.02216797 -160.99042969 278.89003906 -159.78515625 278.75390625 C-158.70113525 278.63345947 -157.61711426 278.5130127 -156.50024414 278.38891602 C-154.06529863 278.26197197 -154.06529863 278.26197197 -153 277 C-151.15108054 276.76636119 -149.29511969 276.58696365 -147.4375 276.4375 C-145.91962891 276.31181641 -145.91962891 276.31181641 -144.37109375 276.18359375 C-143.58863281 276.12300781 -142.80617188 276.06242187 -142 276 C-140.515 271.05 -140.515 271.05 -139 266 C-138.34 266 -137.68 266 -137 266 C-136.855625 265.236875 -136.71125 264.47375 -136.5625 263.6875 C-136 261 -136 261 -135 258 C-134.34 258 -133.68 258 -133 258 C-132.855625 257.236875 -132.71125 256.47375 -132.5625 255.6875 C-132 253 -132 253 -131 250 C-130.34 250 -129.68 250 -129 250 C-128.87625 249.278125 -128.7525 248.55625 -128.625 247.8125 C-128.0095069 245.04278106 -127.11555626 242.6029646 -126 240 C-125.34 240 -124.68 240 -124 240 C-123.855625 239.05125 -123.71125 238.1025 -123.5625 237.125 C-123 234 -123 234 -122 232 C-121.34 232 -120.68 232 -120 232 C-119.855625 231.236875 -119.71125 230.47375 -119.5625 229.6875 C-119 227 -119 227 -118 224 C-117.34 224 -116.68 224 -116 224 C-115.87625 223.278125 -115.7525 222.55625 -115.625 221.8125 C-115.0095069 219.04278106 -114.11555626 216.6029646 -113 214 C-112.34 214 -111.68 214 -111 214 C-110.855625 213.05125 -110.71125 212.1025 -110.5625 211.125 C-110 208 -110 208 -109 206 C-108.34 206 -107.68 206 -107 206 C-106.855625 205.236875 -106.71125 204.47375 -106.5625 203.6875 C-106 201 -106 201 -105 198 C-104.34 198 -103.68 198 -103 198 C-102.855625 197.236875 -102.71125 196.47375 -102.5625 195.6875 C-102 193 -102 193 -101 190 C-100.34 190 -99.68 190 -99 190 C-97.515 185.05 -97.515 185.05 -96 180 C-95.34 180 -94.68 180 -94 180 C-93.855625 179.236875 -93.71125 178.47375 -93.5625 177.6875 C-93 175 -93 175 -92 172 C-91.34 172 -90.68 172 -90 172 C-89.855625 170.88625 -89.71125 169.7725 -89.5625 168.625 C-89 165 -89 165 -88 163 C-87.34 163 -86.68 163 -86 163 C-85.89816406 162.31550781 -85.79632813 161.63101563 -85.69140625 160.92578125 C-84.86230008 157.41730374 -83.4827768 154.44244474 -81.9375 151.1875 C-81.38964844 150.02605469 -80.84179688 148.86460937 -80.27734375 147.66796875 C-79.64505859 146.34732422 -79.64505859 146.34732422 -79 145 C-78.34 145 -77.68 145 -77 145 C-76.855625 144.05125 -76.71125 143.1025 -76.5625 142.125 C-76 139 -76 139 -75 137 C-74.34 137 -73.68 137 -73 137 C-72.89816406 136.31550781 -72.79632813 135.63101563 -72.69140625 134.92578125 C-71.86230008 131.41730374 -70.4827768 128.44244474 -68.9375 125.1875 C-68.38964844 124.02605469 -67.84179688 122.86460937 -67.27734375 121.66796875 C-66.64505859 120.34732422 -66.64505859 120.34732422 -66 119 C-65.34 119 -64.68 119 -64 119 C-63.855625 118.05125 -63.71125 117.1025 -63.5625 116.125 C-63 113 -63 113 -62 111 C-61.34 111 -60.68 111 -60 111 C-59.89816406 110.31550781 -59.79632813 109.63101563 -59.69140625 108.92578125 C-58.86230008 105.41730374 -57.4827768 102.44244474 -55.9375 99.1875 C-55.38964844 98.02605469 -54.84179688 96.86460937 -54.27734375 95.66796875 C-53.64505859 94.34732422 -53.64505859 94.34732422 -53 93 C-52.34 93 -51.68 93 -51 93 C-50.855625 92.05125 -50.71125 91.1025 -50.5625 90.125 C-50 87 -50 87 -49 85 C-48.34 85 -47.68 85 -47 85 C-46.855625 84.236875 -46.71125 83.47375 -46.5625 82.6875 C-46 80 -46 80 -45 77 C-44.34 77 -43.68 77 -43 77 C-42.89816406 76.31550781 -42.79632813 75.63101563 -42.69140625 74.92578125 C-41.86230008 71.41730374 -40.4827768 68.44244474 -38.9375 65.1875 C-38.38964844 64.02605469 -37.84179688 62.86460938 -37.27734375 61.66796875 C-36.85582031 60.78753906 -36.43429687 59.90710938 -36 59 C-35.34 59 -34.68 59 -34 59 C-33.34 56.03 -32.68 53.06 -32 50 C-31.34 50 -30.68 50 -30 50 C-29.87625 49.113125 -29.7525 48.22625 -29.625 47.3125 C-29.05587264 44.29612498 -28.23385564 41.79673946 -27 39 C-26.34 39 -25.68 39 -25 39 C-24.34 36.36 -23.68 33.72 -23 31 C-22.34 31 -21.68 31 -21 31 C-20.34 28.69 -19.68 26.38 -19 24 C-18.34 24 -17.68 24 -17 24 C-16.87625 23.05125 -16.7525 22.1025 -16.625 21.125 C-16 18 -16 18 -14 16 C-13.443125 15.113125 -12.88625 14.22625 -12.3125 13.3125 C-9.76417865 9.43253704 -6.65842041 5.86901647 -3 3 C-2.01 3 -1.02 3 0 3 C0 2.01 0 1.02 0 0 Z " fill="#FFA200" transform="translate(488,59)"/>
</svg>
